<?xml version="1.0" encoding="UTF-8" standalone="no"?>
<!DOCTYPE svg PUBLIC "-//W3C//DTD SVG 1.1//EN"
 "http://www.w3.org/Graphics/SVG/1.1/DTD/svg11.dtd">
<!-- Generated by graphviz version 2.38.0 (20140413.2041)
 -->
<!-- Title: IVectorBase Pages: 1 -->
<!--zoomable 671 -->
<svg id="main" version="1.1" xmlns="http://www.w3.org/2000/svg" xmlns:xlink="http://www.w3.org/1999/xlink" xml:space="preserve" onload="init(evt)">
<style type="text/css"><![CDATA[
.edge:hover path { stroke: red; }
.edge:hover polygon { stroke: red; fill: red; }
]]></style>
<script type="text/javascript"><![CDATA[
var edges = document.getElementsByTagName('g');
if (edges && edges.length) {
  for (var i=0;i<edges.length;i++) {
    if (edges[i].id.substr(0,4)=='edge') {
      edges[i].setAttribute('class','edge');
    }
  }
}
]]></script>
        <defs>
                <circle id="rim" cx="0" cy="0" r="7"/>
                <circle id="rim2" cx="0" cy="0" r="3.5"/>
                <g id="zoomPlus">
                        <use xlink:href="#rim" fill="#404040">
                                <set attributeName="fill" to="#808080" begin="zoomplus.mouseover" end="zoomplus.mouseout"/>
                        </use>
                        <path d="M-4,0h8M0,-4v8" fill="none" stroke="white" stroke-width="1.5" pointer-events="none"/>
                </g>
                <g id="zoomMin">
                        <use xlink:href="#rim" fill="#404040">
                                <set attributeName="fill" to="#808080" begin="zoomminus.mouseover" end="zoomminus.mouseout"/>
                        </use>
                        <path d="M-4,0h8" fill="none" stroke="white" stroke-width="1.5" pointer-events="none"/>
                </g>
                <g id="dirArrow">
                        <path fill="none" stroke="white" stroke-width="1.5" d="M0,-3.0v7 M-2.5,-0.5L0,-3.0L2.5,-0.5"/>
                </g>
               <g id="resetDef">
                       <use xlink:href="#rim2" fill="#404040">
                               <set attributeName="fill" to="#808080" begin="reset.mouseover" end="reset.mouseout"/>
                       </use>
               </g>
        </defs>

<script type="text/javascript">
var viewWidth = 431;
var viewHeight = 671;
var sectionId = 'dynsection-0';
</script>
<script xlink:href="svgpan.js"/>
<svg id="graph" class="graph">
<g id="viewport">
<title>IVectorBase</title>
<polygon fill="white" stroke="none" points="-4,4 -4,-667 427,-667 427,4 -4,4"/>
<!-- Node1 -->
<g id="node1" class="node"><title>Node1</title>
<polygon fill="#bfbfbf" stroke="black" points="0,-358.5 0,-377.5 74,-377.5 74,-358.5 0,-358.5"/>
<text text-anchor="middle" x="37" y="-365.5" font-family="Helvetica,sans-Serif" font-size="10.00">IVectorBase</text>
</g>
<!-- Node2 -->
<g id="node2" class="node"><title>Node2</title>
<g id="a_node2"><a xlink:href="class_i_f_p_s_display_control.html" target="_top" xlink:title="Performance display meter, based on code from NanoVG This is a special control that lives outside the...">
<polygon fill="white" stroke="black" points="127,-643.5 127,-662.5 233,-662.5 233,-643.5 127,-643.5"/>
<text text-anchor="middle" x="180" y="-650.5" font-family="Helvetica,sans-Serif" font-size="10.00">IFPSDisplayControl</text>
</a>
</g>
</g>
<!-- Node1&#45;&gt;Node2 -->
<g id="edge1" class="edge"><title>Node1&#45;&gt;Node2</title>
<path fill="none" stroke="midnightblue" d="M37.1833,-387.809C36.2978,-436.821 41.0926,-564.791 110,-634 114.734,-638.755 120.541,-642.349 126.758,-645.061"/>
<polygon fill="midnightblue" stroke="midnightblue" points="40.6875,-387.71 37.4757,-377.614 33.6904,-387.51 40.6875,-387.71"/>
</g>
<!-- Node3 -->
<g id="node3" class="node"><title>Node3</title>
<g id="a_node3"><a xlink:href="class_i_v_button_control.html" target="_top" xlink:title="A vector button/momentary switch control. ">
<polygon fill="white" stroke="black" points="134,-605.5 134,-624.5 226,-624.5 226,-605.5 134,-605.5"/>
<text text-anchor="middle" x="180" y="-612.5" font-family="Helvetica,sans-Serif" font-size="10.00">IVButtonControl</text>
</a>
</g>
</g>
<!-- Node1&#45;&gt;Node3 -->
<g id="edge2" class="edge"><title>Node1&#45;&gt;Node3</title>
<path fill="none" stroke="midnightblue" d="M38.2556,-387.937C39.9377,-432.041 50.3275,-538.506 110,-596 116.532,-602.293 124.949,-606.542 133.645,-609.401"/>
<polygon fill="midnightblue" stroke="midnightblue" points="41.7537,-387.814 37.9875,-377.911 34.7562,-388.001 41.7537,-387.814"/>
</g>
<!-- Node4 -->
<g id="node4" class="node"><title>Node4</title>
<g id="a_node4"><a xlink:href="class_i_v_color_swatch_control.html" target="_top" xlink:title="A control to show a colour swatch of up to 9 colous. ">
<polygon fill="white" stroke="black" points="120.5,-567.5 120.5,-586.5 239.5,-586.5 239.5,-567.5 120.5,-567.5"/>
<text text-anchor="middle" x="180" y="-574.5" font-family="Helvetica,sans-Serif" font-size="10.00">IVColorSwatchControl</text>
</a>
</g>
</g>
<!-- Node1&#45;&gt;Node4 -->
<g id="edge3" class="edge"><title>Node1&#45;&gt;Node4</title>
<path fill="none" stroke="midnightblue" d="M39.7245,-387.965C44.1528,-426.624 59.4173,-511.94 110,-558 114.226,-561.848 119.161,-564.927 124.414,-567.388"/>
<polygon fill="midnightblue" stroke="midnightblue" points="43.1607,-387.157 38.671,-377.56 36.1963,-387.862 43.1607,-387.157"/>
</g>
<!-- Node5 -->
<g id="node5" class="node"><title>Node5</title>
<g id="a_node5"><a xlink:href="class_i_v_display_control.html" target="_top" xlink:title="IVDisplayControl">
<polygon fill="white" stroke="black" points="132.5,-529.5 132.5,-548.5 227.5,-548.5 227.5,-529.5 132.5,-529.5"/>
<text text-anchor="middle" x="180" y="-536.5" font-family="Helvetica,sans-Serif" font-size="10.00">IVDisplayControl</text>
</a>
</g>
</g>
<!-- Node1&#45;&gt;Node5 -->
<g id="edge4" class="edge"><title>Node1&#45;&gt;Node5</title>
<path fill="none" stroke="midnightblue" d="M41.7643,-387.544C49.0506,-419.995 68.196,-484.892 110,-520 116.47,-525.434 124.371,-529.321 132.487,-532.101"/>
<polygon fill="midnightblue" stroke="midnightblue" points="45.1405,-386.59 39.6639,-377.52 38.2893,-388.026 45.1405,-386.59"/>
</g>
<!-- Node6 -->
<g id="node6" class="node"><title>Node6</title>
<g id="a_node6"><a xlink:href="class_i_v_group_control.html" target="_top" xlink:title="IVGroupControl">
<polygon fill="white" stroke="black" points="135.5,-491.5 135.5,-510.5 224.5,-510.5 224.5,-491.5 135.5,-491.5"/>
<text text-anchor="middle" x="180" y="-498.5" font-family="Helvetica,sans-Serif" font-size="10.00">IVGroupControl</text>
</a>
</g>
</g>
<!-- Node1&#45;&gt;Node6 -->
<g id="edge5" class="edge"><title>Node1&#45;&gt;Node6</title>
<path fill="none" stroke="midnightblue" d="M45.0261,-387.305C55.3167,-412.843 76.931,-457.477 110,-482 117.385,-487.477 126.266,-491.375 135.162,-494.149"/>
<polygon fill="midnightblue" stroke="midnightblue" points="48.1664,-385.72 41.3087,-377.644 41.6333,-388.234 48.1664,-385.72"/>
</g>
<!-- Node7 -->
<g id="node7" class="node"><title>Node7</title>
<g id="a_node7"><a xlink:href="class_i_v_knob_control.html" target="_top" xlink:title="A vector knob control drawn using graphics primitves. ">
<polygon fill="white" stroke="black" points="138,-453.5 138,-472.5 222,-472.5 222,-453.5 138,-453.5"/>
<text text-anchor="middle" x="180" y="-460.5" font-family="Helvetica,sans-Serif" font-size="10.00">IVKnobControl</text>
</a>
</g>
</g>
<!-- Node1&#45;&gt;Node7 -->
<g id="edge6" class="edge"><title>Node1&#45;&gt;Node7</title>
<path fill="none" stroke="midnightblue" d="M50.2394,-385.703C63.1487,-403.058 85.0511,-429.026 110,-444 118.416,-449.051 128.209,-452.794 137.727,-455.556"/>
<polygon fill="midnightblue" stroke="midnightblue" points="53.0259,-383.583 44.34,-377.516 47.3468,-387.675 53.0259,-383.583"/>
</g>
<!-- Node8 -->
<g id="node8" class="node"><title>Node8</title>
<g id="a_node8"><a xlink:href="class_i_v_label_control.html" target="_top" xlink:title="IVLabelControl">
<polygon fill="white" stroke="black" points="137,-415.5 137,-434.5 223,-434.5 223,-415.5 137,-415.5"/>
<text text-anchor="middle" x="180" y="-422.5" font-family="Helvetica,sans-Serif" font-size="10.00">IVLabelControl</text>
</a>
</g>
</g>
<!-- Node1&#45;&gt;Node8 -->
<g id="edge7" class="edge"><title>Node1&#45;&gt;Node8</title>
<path fill="none" stroke="midnightblue" d="M62.5875,-382.684C76.2161,-390.382 93.6645,-399.529 110,-406 119.126,-409.615 129.19,-412.808 138.745,-415.496"/>
<polygon fill="midnightblue" stroke="midnightblue" points="64.2357,-379.594 53.8233,-377.637 60.7423,-385.66 64.2357,-379.594"/>
</g>
<!-- Node9 -->
<g id="node9" class="node"><title>Node9</title>
<g id="a_node9"><a xlink:href="class_i_v_number_box_control.html" target="_top" xlink:title="A &quot;meta control&quot; for a number box with an Inc/Dec button It adds several child buttons. ">
<polygon fill="white" stroke="black" points="121.5,-377.5 121.5,-396.5 238.5,-396.5 238.5,-377.5 121.5,-377.5"/>
<text text-anchor="middle" x="180" y="-384.5" font-family="Helvetica,sans-Serif" font-size="10.00">IVNumberBoxControl</text>
</a>
</g>
</g>
<!-- Node1&#45;&gt;Node9 -->
<g id="edge8" class="edge"><title>Node1&#45;&gt;Node9</title>
<path fill="none" stroke="midnightblue" d="M84.4168,-374.255C96.2638,-375.851 109.142,-377.587 121.472,-379.248"/>
<polygon fill="midnightblue" stroke="midnightblue" points="84.6889,-370.76 74.311,-372.893 83.754,-377.697 84.6889,-370.76"/>
</g>
<!-- Node10 -->
<g id="node10" class="node"><title>Node10</title>
<g id="a_node10"><a xlink:href="class_i_v_panel_control.html" target="_top" xlink:title="A panel control which can be styled with emboss etc. ">
<polygon fill="white" stroke="black" points="137,-339.5 137,-358.5 223,-358.5 223,-339.5 137,-339.5"/>
<text text-anchor="middle" x="180" y="-346.5" font-family="Helvetica,sans-Serif" font-size="10.00">IVPanelControl</text>
</a>
</g>
</g>
<!-- Node1&#45;&gt;Node10 -->
<g id="edge9" class="edge"><title>Node1&#45;&gt;Node10</title>
<path fill="none" stroke="midnightblue" d="M84.5066,-361.733C101.379,-359.46 120.333,-356.906 136.812,-354.685"/>
<polygon fill="midnightblue" stroke="midnightblue" points="83.754,-358.303 74.311,-363.107 84.6889,-365.24 83.754,-358.303"/>
</g>
<!-- Node11 -->
<g id="node11" class="node"><title>Node11</title>
<g id="a_node11"><a xlink:href="class_i_v_plot_control.html" target="_top" xlink:title="a vector plot to display functions and waveforms ">
<polygon fill="white" stroke="black" points="141,-301.5 141,-320.5 219,-320.5 219,-301.5 141,-301.5"/>
<text text-anchor="middle" x="180" y="-308.5" font-family="Helvetica,sans-Serif" font-size="10.00">IVPlotControl</text>
</a>
</g>
</g>
<!-- Node1&#45;&gt;Node11 -->
<g id="edge10" class="edge"><title>Node1&#45;&gt;Node11</title>
<path fill="none" stroke="midnightblue" d="M62.5875,-353.316C76.2161,-345.618 93.6645,-336.471 110,-330 119.819,-326.11 130.724,-322.709 140.912,-319.901"/>
<polygon fill="midnightblue" stroke="midnightblue" points="60.7423,-350.34 53.8233,-358.363 64.2357,-356.406 60.7423,-350.34"/>
</g>
<!-- Node12 -->
<g id="node12" class="node"><title>Node12</title>
<g id="a_node12"><a xlink:href="class_i_v_scope_control.html" target="_top" xlink:title="Vectorial multichannel capable oscilloscope control. ">
<polygon fill="white" stroke="black" points="110,-252 110,-282 250,-282 250,-252 110,-252"/>
<text text-anchor="start" x="118" y="-270" font-family="Helvetica,sans-Serif" font-size="10.00">IVScopeControl&lt; MAXNC,</text>
<text text-anchor="middle" x="180" y="-259" font-family="Helvetica,sans-Serif" font-size="10.00"> MAXBUF, QUEUE_SIZE &gt;</text>
</a>
</g>
</g>
<!-- Node1&#45;&gt;Node12 -->
<g id="edge11" class="edge"><title>Node1&#45;&gt;Node12</title>
<path fill="none" stroke="midnightblue" d="M50.7062,-350.434C63.8404,-333.397 85.7906,-307.862 110,-292 115.755,-288.229 122.152,-284.937 128.665,-282.089"/>
<polygon fill="midnightblue" stroke="midnightblue" points="47.8773,-348.373 44.6762,-358.472 53.4769,-352.573 47.8773,-348.373"/>
</g>
<!-- Node13 -->
<g id="node13" class="node"><title>Node13</title>
<g id="a_node13"><a xlink:href="class_i_v_slider_control.html" target="_top" xlink:title="A vector slider control. ">
<polygon fill="white" stroke="black" points="136.5,-213.5 136.5,-232.5 223.5,-232.5 223.5,-213.5 136.5,-213.5"/>
<text text-anchor="middle" x="180" y="-220.5" font-family="Helvetica,sans-Serif" font-size="10.00">IVSliderControl</text>
</a>
</g>
</g>
<!-- Node1&#45;&gt;Node13 -->
<g id="edge12" class="edge"><title>Node1&#45;&gt;Node13</title>
<path fill="none" stroke="midnightblue" d="M44.0162,-348.484C53.5307,-320.875 74.6866,-270.7 110,-243 117.654,-236.996 127.05,-232.794 136.415,-229.853"/>
<polygon fill="midnightblue" stroke="midnightblue" points="40.6269,-347.587 40.8368,-358.18 47.2784,-349.768 40.6269,-347.587"/>
</g>
<!-- Node14 -->
<g id="node14" class="node"><title>Node14</title>
<g id="a_node14"><a xlink:href="class_i_v_switch_control.html" target="_top" xlink:title="A vector switch control. ">
<polygon fill="white" stroke="black" points="134.5,-175.5 134.5,-194.5 225.5,-194.5 225.5,-175.5 134.5,-175.5"/>
<text text-anchor="middle" x="180" y="-182.5" font-family="Helvetica,sans-Serif" font-size="10.00">IVSwitchControl</text>
</a>
</g>
</g>
<!-- Node1&#45;&gt;Node14 -->
<g id="edge13" class="edge"><title>Node1&#45;&gt;Node14</title>
<path fill="none" stroke="midnightblue" d="M41.1117,-347.898C47.5478,-313.263 65.6196,-242.371 110,-204 116.861,-198.068 125.42,-193.974 134.151,-191.152"/>
<polygon fill="midnightblue" stroke="midnightblue" points="37.5935,-347.707 39.3539,-358.154 44.4929,-348.889 37.5935,-347.707"/>
</g>
<!-- Node17 -->
<g id="node17" class="node"><title>Node17</title>
<g id="a_node17"><a xlink:href="class_i_v_tab_switch_control.html" target="_top" xlink:title="A vector &quot;tab&quot; multi switch control. ">
<polygon fill="white" stroke="black" points="126.5,-137.5 126.5,-156.5 233.5,-156.5 233.5,-137.5 126.5,-137.5"/>
<text text-anchor="middle" x="180" y="-144.5" font-family="Helvetica,sans-Serif" font-size="10.00">IVTabSwitchControl</text>
</a>
</g>
</g>
<!-- Node1&#45;&gt;Node17 -->
<g id="edge16" class="edge"><title>Node1&#45;&gt;Node17</title>
<path fill="none" stroke="midnightblue" d="M39.195,-348.161C42.7188,-307.785 56.507,-215.689 110,-166 114.734,-161.603 120.391,-158.208 126.402,-155.59"/>
<polygon fill="midnightblue" stroke="midnightblue" points="35.6918,-348.074 38.4359,-358.308 42.6723,-348.597 35.6918,-348.074"/>
</g>
<!-- Node19 -->
<g id="node19" class="node"><title>Node19</title>
<g id="a_node19"><a xlink:href="class_i_v_track_control_base.html" target="_top" xlink:title="A base class for mult&#45;strip/track controls, such as multi&#45;sliders, meters. ">
<polygon fill="white" stroke="black" points="126,-93.5 126,-112.5 234,-112.5 234,-93.5 126,-93.5"/>
<text text-anchor="middle" x="180" y="-100.5" font-family="Helvetica,sans-Serif" font-size="10.00">IVTrackControlBase</text>
</a>
</g>
</g>
<!-- Node1&#45;&gt;Node19 -->
<g id="edge18" class="edge"><title>Node1&#45;&gt;Node19</title>
<path fill="none" stroke="midnightblue" d="M38.2352,-348.016C39.8501,-302.747 50.0688,-191.394 110,-128 116.477,-121.149 124.975,-116.169 133.784,-112.552"/>
<polygon fill="midnightblue" stroke="midnightblue" points="34.7302,-348.177 37.9819,-358.261 41.7281,-348.35 34.7302,-348.177"/>
</g>
<!-- Node23 -->
<g id="node23" class="node"><title>Node23</title>
<g id="a_node23"><a xlink:href="class_i_v_x_y_pad_control.html" target="_top" xlink:title="IVXYPadControl">
<polygon fill="white" stroke="black" points="135.5,-55.5 135.5,-74.5 224.5,-74.5 224.5,-55.5 135.5,-55.5"/>
<text text-anchor="middle" x="180" y="-62.5" font-family="Helvetica,sans-Serif" font-size="10.00">IVXYPadControl</text>
</a>
</g>
</g>
<!-- Node1&#45;&gt;Node23 -->
<g id="edge22" class="edge"><title>Node1&#45;&gt;Node23</title>
<path fill="none" stroke="midnightblue" d="M40.4174,-348.261C47.899,-290.308 72.4549,-122.319 110,-84 116.783,-77.0775 125.838,-72.6095 135.151,-69.743"/>
<polygon fill="midnightblue" stroke="midnightblue" points="36.9284,-347.954 39.1499,-358.313 43.8734,-348.83 36.9284,-347.954"/>
</g>
<!-- Node15 -->
<g id="node15" class="node"><title>Node15</title>
<g id="a_node15"><a xlink:href="class_i_v_slide_switch_control.html" target="_top" xlink:title="/todo. ">
<polygon fill="white" stroke="black" points="297.5,-213.5 297.5,-232.5 411.5,-232.5 411.5,-213.5 297.5,-213.5"/>
<text text-anchor="middle" x="354.5" y="-220.5" font-family="Helvetica,sans-Serif" font-size="10.00">IVSlideSwitchControl</text>
</a>
</g>
</g>
<!-- Node14&#45;&gt;Node15 -->
<g id="edge14" class="edge"><title>Node14&#45;&gt;Node15</title>
<path fill="none" stroke="midnightblue" d="M234.351,-196.753C258.742,-202.126 287.263,-208.409 310.284,-213.48"/>
<polygon fill="midnightblue" stroke="midnightblue" points="235.048,-193.322 224.529,-194.589 233.542,-200.158 235.048,-193.322"/>
</g>
<!-- Node16 -->
<g id="node16" class="node"><title>Node16</title>
<g id="a_node16"><a xlink:href="class_i_v_toggle_control.html" target="_top" xlink:title="A vector toggle control. ">
<polygon fill="white" stroke="black" points="309.5,-175.5 309.5,-194.5 399.5,-194.5 399.5,-175.5 309.5,-175.5"/>
<text text-anchor="middle" x="354.5" y="-182.5" font-family="Helvetica,sans-Serif" font-size="10.00">IVToggleControl</text>
</a>
</g>
</g>
<!-- Node14&#45;&gt;Node16 -->
<g id="edge15" class="edge"><title>Node14&#45;&gt;Node16</title>
<path fill="none" stroke="midnightblue" d="M236.126,-185C259.821,-185 287.136,-185 309.45,-185"/>
<polygon fill="midnightblue" stroke="midnightblue" points="235.872,-181.5 225.872,-185 235.872,-188.5 235.872,-181.5"/>
</g>
<!-- Node18 -->
<g id="node18" class="node"><title>Node18</title>
<g id="a_node18"><a xlink:href="class_i_v_radio_button_control.html" target="_top" xlink:title="IVRadioButtonControl">
<polygon fill="white" stroke="black" points="295,-137.5 295,-156.5 414,-156.5 414,-137.5 295,-137.5"/>
<text text-anchor="middle" x="354.5" y="-144.5" font-family="Helvetica,sans-Serif" font-size="10.00">IVRadioButtonControl</text>
</a>
</g>
</g>
<!-- Node17&#45;&gt;Node18 -->
<g id="edge17" class="edge"><title>Node17&#45;&gt;Node18</title>
<path fill="none" stroke="midnightblue" d="M243.867,-147C260.506,-147 278.401,-147 294.81,-147"/>
<polygon fill="midnightblue" stroke="midnightblue" points="243.693,-143.5 233.693,-147 243.693,-150.5 243.693,-143.5"/>
</g>
<!-- Node20 -->
<g id="node20" class="node"><title>Node20</title>
<g id="a_node20"><a xlink:href="class_i_v_meter_control.html" target="_top" xlink:title="Vectorial multichannel capable meter control. ">
<polygon fill="white" stroke="black" points="286,-88 286,-118 423,-118 423,-88 286,-88"/>
<text text-anchor="start" x="294" y="-106" font-family="Helvetica,sans-Serif" font-size="10.00">IVMeterControl&lt; MAXNC,</text>
<text text-anchor="middle" x="354.5" y="-95" font-family="Helvetica,sans-Serif" font-size="10.00"> QUEUE_SIZE &gt;</text>
</a>
</g>
</g>
<!-- Node19&#45;&gt;Node20 -->
<g id="edge19" class="edge"><title>Node19&#45;&gt;Node20</title>
<path fill="none" stroke="midnightblue" d="M244.323,-103C257.848,-103 272.184,-103 285.864,-103"/>
<polygon fill="midnightblue" stroke="midnightblue" points="244.163,-99.5001 234.163,-103 244.163,-106.5 244.163,-99.5001"/>
</g>
<!-- Node21 -->
<g id="node21" class="node"><title>Node21</title>
<g id="a_node21"><a xlink:href="class_i_v_multi_slider_control.html" target="_top" xlink:title="A vectorial multi&#45;slider control. ">
<polygon fill="white" stroke="black" points="299.5,-39 299.5,-69 409.5,-69 409.5,-39 299.5,-39"/>
<text text-anchor="start" x="307.5" y="-57" font-family="Helvetica,sans-Serif" font-size="10.00">IVMultiSliderControl</text>
<text text-anchor="middle" x="354.5" y="-46" font-family="Helvetica,sans-Serif" font-size="10.00">&lt; MAXNC &gt;</text>
</a>
</g>
</g>
<!-- Node19&#45;&gt;Node21 -->
<g id="edge20" class="edge"><title>Node19&#45;&gt;Node21</title>
<path fill="none" stroke="midnightblue" d="M225.785,-90.762C233.851,-88.531 242.18,-86.21 250,-84 267.013,-79.1922 285.569,-73.8459 302.211,-69.0139"/>
<polygon fill="midnightblue" stroke="midnightblue" points="224.837,-87.3926 216.127,-93.4252 226.698,-94.1407 224.837,-87.3926"/>
</g>
<!-- Node22 -->
<g id="node22" class="node"><title>Node22</title>
<g id="a_node22"><a xlink:href="class_i_v_range_slider_control.html" target="_top" xlink:title="IVRangeSliderControl">
<polygon fill="white" stroke="black" points="296,-0.5 296,-19.5 413,-19.5 413,-0.5 296,-0.5"/>
<text text-anchor="middle" x="354.5" y="-7.5" font-family="Helvetica,sans-Serif" font-size="10.00">IVRangeSliderControl</text>
</a>
</g>
</g>
<!-- Node19&#45;&gt;Node22 -->
<g id="edge21" class="edge"><title>Node19&#45;&gt;Node22</title>
<path fill="none" stroke="midnightblue" d="M241.52,-89.2455C244.49,-87.6815 247.339,-85.9398 250,-84 273.607,-66.7888 262.442,-46.2782 286,-29 291.301,-25.112 297.369,-22.0189 303.645,-19.5583"/>
<polygon fill="midnightblue" stroke="midnightblue" points="239.973,-86.1038 232.314,-93.4242 242.867,-92.4779 239.973,-86.1038"/>
</g>
</g>
</svg>
        <g id="navigator" transform="translate(0 0)" fill="#404254">
                <rect fill="#f2f5e9" fill-opacity="0.5" stroke="#606060" stroke-width=".5" x="0" y="0" width="60" height="60"/>
                <use id="zoomplus" xlink:href="#zoomPlus" x="17" y="9" onmousedown="handleZoom(evt,'in')"/>
                <use id="zoomminus" xlink:href="#zoomMin" x="42" y="9" onmousedown="handleZoom(evt,'out')"/>
                <use id="reset" xlink:href="#resetDef" x="30" y="36" onmousedown="handleReset()"/>
                <g id="arrowUp" xlink:href="#dirArrow" transform="translate(30 24)" onmousedown="handlePan(0,-1)">
                  <use xlink:href="#rim" fill="#404040">
                        <set attributeName="fill" to="#808080" begin="arrowUp.mouseover" end="arrowUp.mouseout"/>
                  </use>
                  <path fill="none" stroke="white" stroke-width="1.5" d="M0,-3.0v7 M-2.5,-0.5L0,-3.0L2.5,-0.5"/>
                </g>
                <g id="arrowRight" xlink:href="#dirArrow" transform="rotate(90) translate(36 -43)" onmousedown="handlePan(1,0)">
                  <use xlink:href="#rim" fill="#404040">
                        <set attributeName="fill" to="#808080" begin="arrowRight.mouseover" end="arrowRight.mouseout"/>
                  </use>
                  <path fill="none" stroke="white" stroke-width="1.5" d="M0,-3.0v7 M-2.5,-0.5L0,-3.0L2.5,-0.5"/>
                </g>
                <g id="arrowDown" xlink:href="#dirArrow" transform="rotate(180) translate(-30 -48)" onmousedown="handlePan(0,1)">
                  <use xlink:href="#rim" fill="#404040">
                        <set attributeName="fill" to="#808080" begin="arrowDown.mouseover" end="arrowDown.mouseout"/>
                  </use>
                  <path fill="none" stroke="white" stroke-width="1.5" d="M0,-3.0v7 M-2.5,-0.5L0,-3.0L2.5,-0.5"/>
                </g>
                <g id="arrowLeft" xlink:href="#dirArrow" transform="rotate(270) translate(-36 17)" onmousedown="handlePan(-1,0)">
                  <use xlink:href="#rim" fill="#404040">
                        <set attributeName="fill" to="#808080" begin="arrowLeft.mouseover" end="arrowLeft.mouseout"/>
                  </use>
                  <path fill="none" stroke="white" stroke-width="1.5" d="M0,-3.0v7 M-2.5,-0.5L0,-3.0L2.5,-0.5"/>
                </g>
        </g>
        <svg viewBox="0 0 15 15" width="100%" height="30px" preserveAspectRatio="xMaxYMin meet">
         <g id="arrow_out" transform="scale(0.3 0.3)">
          <a xlink:href="class_i_vector_base__inherit__graph_org.svg" target="_base">
           <rect id="button" ry="5" rx="5" y="6" x="6" height="38" width="38"
                fill="#f2f5e9" fill-opacity="0.5" stroke="#606060" stroke-width="1.0"/>
           <path id="arrow"
             d="M 11.500037,31.436501 C 11.940474,20.09759 22.043105,11.32322 32.158766,21.979434 L 37.068811,17.246167 C 37.068811,17.246167 37.088388,32 37.088388,32 L 22.160133,31.978069 C 22.160133,31.978069 26.997745,27.140456 26.997745,27.140456 C 18.528582,18.264221 13.291696,25.230495 11.500037,31.436501 z"
             style="fill:#404040;"/>
          </a>
         </g>
        </svg>
</svg>
