<?xml version="1.0" encoding="UTF-8" standalone="no"?>
<!DOCTYPE svg PUBLIC "-//W3C//DTD SVG 1.1//EN"
 "http://www.w3.org/Graphics/SVG/1.1/DTD/svg11.dtd">
<!-- Generated by graphviz version 2.38.0 (20140413.2041)
 -->
<!-- Title: ITextControl Pages: 1 -->
<svg width="318pt" height="294pt"
 viewBox="0.00 0.00 318.00 294.00" xmlns="http://www.w3.org/2000/svg" xmlns:xlink="http://www.w3.org/1999/xlink">
<g id="graph0" class="graph" transform="scale(1 1) rotate(0) translate(4 290)">
<title>ITextControl</title>
<polygon fill="white" stroke="none" points="-4,4 -4,-290 314,-290 314,4 -4,4"/>
<!-- Node1 -->
<g id="node1" class="node"><title>Node1</title>
<polygon fill="#bfbfbf" stroke="black" points="89,-133.5 89,-152.5 161,-152.5 161,-133.5 89,-133.5"/>
<text text-anchor="middle" x="125" y="-140.5" font-family="Helvetica,sans-Serif" font-size="10.00">ITextControl</text>
</g>
<!-- Node3 -->
<g id="node3" class="node"><title>Node3</title>
<g id="a_node3"><a xlink:href="class_i_b_text_control.html" target="_top" xlink:title="A control to display text using a monospace bitmap font. ">
<polygon fill="white" stroke="black" points="214,-266.5 214,-285.5 293,-285.5 293,-266.5 214,-266.5"/>
<text text-anchor="middle" x="253.5" y="-273.5" font-family="Helvetica,sans-Serif" font-size="10.00">IBTextControl</text>
</a>
</g>
</g>
<!-- Node1&#45;&gt;Node3 -->
<g id="edge2" class="edge"><title>Node1&#45;&gt;Node3</title>
<path fill="none" stroke="midnightblue" d="M133.234,-162.389C143.612,-187.657 165.063,-231.604 197,-257 202.022,-260.993 207.933,-264.172 213.992,-266.695"/>
<polygon fill="midnightblue" stroke="midnightblue" points="136.385,-160.836 129.466,-152.812 129.871,-163.399 136.385,-160.836"/>
</g>
<!-- Node4 -->
<g id="node4" class="node"><title>Node4</title>
<g id="a_node4"><a xlink:href="class_i_caption_control.html" target="_top" xlink:title="A control to display the textual representation of a parameter. ">
<polygon fill="white" stroke="black" points="208.5,-228.5 208.5,-247.5 298.5,-247.5 298.5,-228.5 208.5,-228.5"/>
<text text-anchor="middle" x="253.5" y="-235.5" font-family="Helvetica,sans-Serif" font-size="10.00">ICaptionControl</text>
</a>
</g>
</g>
<!-- Node1&#45;&gt;Node4 -->
<g id="edge3" class="edge"><title>Node1&#45;&gt;Node4</title>
<path fill="none" stroke="midnightblue" d="M138.417,-160.666C151.283,-177.78 172.864,-203.372 197,-219 202.813,-222.764 209.454,-225.869 216.073,-228.399"/>
<polygon fill="midnightblue" stroke="midnightblue" points="141.241,-158.598 132.516,-152.588 135.588,-162.727 141.241,-158.598"/>
</g>
<!-- Node5 -->
<g id="node5" class="node"><title>Node5</title>
<g id="a_node5"><a xlink:href="class_i_r_t_text_control.html" target="_top" xlink:title="A control to display some text in the UI, driven by values in the RT audio thread. ">
<polygon fill="white" stroke="black" points="198.5,-190.5 198.5,-209.5 308.5,-209.5 308.5,-190.5 198.5,-190.5"/>
<text text-anchor="middle" x="253.5" y="-197.5" font-family="Helvetica,sans-Serif" font-size="10.00">IRTTextControl&lt; T &gt;</text>
</a>
</g>
</g>
<!-- Node1&#45;&gt;Node5 -->
<g id="edge4" class="edge"><title>Node1&#45;&gt;Node5</title>
<path fill="none" stroke="midnightblue" d="M151.037,-157.681C164.417,-165.196 181.321,-174.174 197,-181 204.844,-184.415 213.515,-187.635 221.627,-190.419"/>
<polygon fill="midnightblue" stroke="midnightblue" points="152.406,-154.432 141.986,-152.519 148.938,-160.513 152.406,-154.432"/>
</g>
<!-- Node6 -->
<g id="node6" class="node"><title>Node6</title>
<g id="a_node6"><a xlink:href="class_i_text_toggle_control.html" target="_top" xlink:title="ITextToggleControl">
<polygon fill="white" stroke="black" points="202.5,-152.5 202.5,-171.5 304.5,-171.5 304.5,-152.5 202.5,-152.5"/>
<text text-anchor="middle" x="253.5" y="-159.5" font-family="Helvetica,sans-Serif" font-size="10.00">ITextToggleControl</text>
</a>
</g>
</g>
<!-- Node1&#45;&gt;Node6 -->
<g id="edge5" class="edge"><title>Node1&#45;&gt;Node6</title>
<path fill="none" stroke="midnightblue" d="M171.406,-149.82C181.436,-151.326 192.118,-152.931 202.325,-154.464"/>
<polygon fill="midnightblue" stroke="midnightblue" points="171.646,-146.317 161.237,-148.293 170.606,-153.239 171.646,-146.317"/>
</g>
<!-- Node7 -->
<g id="node7" class="node"><title>Node7</title>
<g id="a_node7"><a xlink:href="class_i_u_r_l_control.html" target="_top" xlink:title="IURLControl">
<polygon fill="white" stroke="black" points="217.5,-114.5 217.5,-133.5 289.5,-133.5 289.5,-114.5 217.5,-114.5"/>
<text text-anchor="middle" x="253.5" y="-121.5" font-family="Helvetica,sans-Serif" font-size="10.00">IURLControl</text>
</a>
</g>
</g>
<!-- Node1&#45;&gt;Node7 -->
<g id="edge6" class="edge"><title>Node1&#45;&gt;Node7</title>
<path fill="none" stroke="midnightblue" d="M171.439,-136.175C186.586,-133.9 203.217,-131.402 217.452,-129.264"/>
<polygon fill="midnightblue" stroke="midnightblue" points="170.606,-132.761 161.237,-137.707 171.646,-139.683 170.606,-132.761"/>
</g>
<!-- Node8 -->
<g id="node8" class="node"><title>Node8</title>
<g id="a_node8"><a xlink:href="class_i_v_label_control.html" target="_top" xlink:title="IVLabelControl">
<polygon fill="white" stroke="black" points="210.5,-76.5 210.5,-95.5 296.5,-95.5 296.5,-76.5 210.5,-76.5"/>
<text text-anchor="middle" x="253.5" y="-83.5" font-family="Helvetica,sans-Serif" font-size="10.00">IVLabelControl</text>
</a>
</g>
</g>
<!-- Node1&#45;&gt;Node8 -->
<g id="edge7" class="edge"><title>Node1&#45;&gt;Node8</title>
<path fill="none" stroke="midnightblue" d="M151.037,-128.319C164.417,-120.804 181.321,-111.826 197,-105 204.844,-101.585 213.515,-98.3655 221.627,-95.5808"/>
<polygon fill="midnightblue" stroke="midnightblue" points="148.938,-125.487 141.986,-133.481 152.406,-131.568 148.938,-125.487"/>
</g>
<!-- Node9 -->
<g id="node9" class="node"><title>Node9</title>
<g id="a_node9"><a xlink:href="class_place_holder.html" target="_top" xlink:title="A control to use as a placeholder during development. ">
<polygon fill="white" stroke="black" points="216.5,-38.5 216.5,-57.5 290.5,-57.5 290.5,-38.5 216.5,-38.5"/>
<text text-anchor="middle" x="253.5" y="-45.5" font-family="Helvetica,sans-Serif" font-size="10.00">PlaceHolder</text>
</a>
</g>
</g>
<!-- Node1&#45;&gt;Node9 -->
<g id="edge8" class="edge"><title>Node1&#45;&gt;Node9</title>
<path fill="none" stroke="midnightblue" d="M138.417,-125.334C151.283,-108.22 172.864,-82.6279 197,-67 202.899,-63.1806 209.649,-60.0398 216.365,-57.4893"/>
<polygon fill="midnightblue" stroke="midnightblue" points="135.588,-123.273 132.516,-133.412 141.241,-127.402 135.588,-123.273"/>
</g>
<!-- Node10 -->
<g id="node10" class="node"><title>Node10</title>
<g id="a_node10"><a xlink:href="class_test_gestures_control.html" target="_top" xlink:title="Control to test multi gesture recognizers. ">
<polygon fill="white" stroke="black" points="197,-0.5 197,-19.5 310,-19.5 310,-0.5 197,-0.5"/>
<text text-anchor="middle" x="253.5" y="-7.5" font-family="Helvetica,sans-Serif" font-size="10.00">TestGesturesControl</text>
</a>
</g>
</g>
<!-- Node1&#45;&gt;Node10 -->
<g id="edge9" class="edge"><title>Node1&#45;&gt;Node10</title>
<path fill="none" stroke="midnightblue" d="M133.234,-123.611C143.612,-98.3432 165.063,-54.3961 197,-29 201.863,-25.1333 207.559,-22.0306 213.416,-19.5473"/>
<polygon fill="midnightblue" stroke="midnightblue" points="129.871,-122.601 129.466,-133.188 136.385,-125.164 129.871,-122.601"/>
</g>
<!-- Node2 -->
<g id="node2" class="node"><title>Node2</title>
<g id="a_node2"><a xlink:href="class_i_control.html" target="_top" xlink:title="The lowest level base class of an IGraphics control. ">
<polygon fill="white" stroke="black" points="0,-133.5 0,-152.5 53,-152.5 53,-133.5 0,-133.5"/>
<text text-anchor="middle" x="26.5" y="-140.5" font-family="Helvetica,sans-Serif" font-size="10.00">IControl</text>
</a>
</g>
</g>
<!-- Node2&#45;&gt;Node1 -->
<g id="edge1" class="edge"><title>Node2&#45;&gt;Node1</title>
<path fill="none" stroke="midnightblue" d="M63.3032,-143C71.6426,-143 80.5145,-143 88.8264,-143"/>
<polygon fill="midnightblue" stroke="midnightblue" points="63.1069,-139.5 53.1069,-143 63.1068,-146.5 63.1069,-139.5"/>
</g>
</g>
</svg>
